<?xml version="1.0" encoding="UTF-8" standalone="no"?>
<!-- Created with Inkscape (http://www.inkscape.org/) -->

<svg
   xmlns:dc="http://purl.org/dc/elements/1.1/"
   xmlns:cc="http://creativecommons.org/ns#"
   xmlns:rdf="http://www.w3.org/1999/02/22-rdf-syntax-ns#"
   xmlns:svg="http://www.w3.org/2000/svg"
   xmlns="http://www.w3.org/2000/svg"
   xmlns:sodipodi="http://sodipodi.sourceforge.net/DTD/sodipodi-0.dtd"
   xmlns:inkscape="http://www.inkscape.org/namespaces/inkscape"
   width="500"
   height="500"
   id="svg2"
   version="1.1"
   inkscape:version="0.48.5 r10040"
   sodipodi:docname="Star emblem.svg">
  <defs
     id="defs4">
    <inkscape:path-effect
       effect="spiro"
       id="path-effect7730"
       is_visible="true" />
    <inkscape:path-effect
       effect="spiro"
       id="path-effect7724"
       is_visible="true" />
    <inkscape:path-effect
       effect="skeletal"
       id="path-effect7720"
       is_visible="true"
       pattern="m -345.71429,-108.57143 400.036888,-18.30463 440.963112,9.7332"
       copytype="single_stretched"
       prop_scale="1"
       scale_y_rel="false"
       spacing="0"
       normal_offset="0"
       tang_offset="0"
       prop_units="false"
       vertical_pattern="false"
       fuse_tolerance="0"
       pattern-nodetypes="ccc" />
    <inkscape:path-effect
       effect="spiro"
       id="path-effect7718"
       is_visible="true" />
    <inkscape:path-effect
       effect="spiro"
       id="path-effect7712"
       is_visible="true" />
    <inkscape:path-effect
       effect="skeletal"
       id="path-effect7706"
       is_visible="true"
       pattern="M 0,0 1,0"
       copytype="single_stretched"
       prop_scale="20"
       scale_y_rel="false"
       spacing="0"
       normal_offset="0"
       tang_offset="0"
       prop_units="false"
       vertical_pattern="false"
       fuse_tolerance="0" />
    <inkscape:path-effect
       effect="skeletal"
       id="path-effect7703"
       is_visible="true"
       pattern="m -80,17.142857 146.714286,40"
       copytype="single_stretched"
       prop_scale="1"
       scale_y_rel="false"
       spacing="0"
       normal_offset="0"
       tang_offset="0"
       prop_units="false"
       vertical_pattern="false"
       fuse_tolerance="0"
       pattern-nodetypes="cc" />
    <inkscape:path-effect
       effect="spiro"
       id="path-effect7701"
       is_visible="true" />
  </defs>
  <sodipodi:namedview
     id="base"
     pagecolor="#ffffff"
     bordercolor="#666666"
     borderopacity="1.0"
     inkscape:pageopacity="0.0"
     inkscape:pageshadow="2"
     inkscape:zoom="1.0100938"
     inkscape:cx="490.12754"
     inkscape:cy="295.81292"
     inkscape:document-units="px"
     inkscape:current-layer="layer1"
     showgrid="false"
     inkscape:window-width="1280"
     inkscape:window-height="1005"
     inkscape:window-x="-4"
     inkscape:window-y="-4"
     inkscape:window-maximized="1"
     showguides="true"
     inkscape:guide-bbox="true"
     inkscape:snap-global="true"
     showborder="true" />
  <metadata
     id="metadata7">
    <rdf:RDF>
      <cc:Work
         rdf:about="">
        <dc:format>image/svg+xml</dc:format>
        <dc:type
           rdf:resource="http://purl.org/dc/dcmitype/StillImage" />
        <dc:title></dc:title>
      </cc:Work>
    </rdf:RDF>
  </metadata>
  <g
     inkscape:label="Layer 1"
     inkscape:groupmode="layer"
     id="layer1"
     transform="translate(0,-552.36218)">
    <g
       id="g7772"
       transform="matrix(3.1398778,0,0,3.1398778,1917.8314,-135.27363)">
      <g
         id="g7750">
        <path
           sodipodi:type="arc"
           style="fill:none;stroke:#000000"
           id="path7735"
           sodipodi:cx="-536.08881"
           sodipodi:cy="251.19894"
           sodipodi:rx="21.780155"
           sodipodi:ry="43.312809"
           d="m -514.30865,251.19894 c 0,23.92101 -9.75131,43.31281 -21.78016,43.31281 -12.02884,0 -21.78015,-19.3918 -21.78015,-43.31281 0,-23.921 9.75131,-43.3128 21.78015,-43.3128 12.02885,0 21.78016,19.3918 21.78016,43.3128 z"
           transform="matrix(1.2190933,0.28263948,-0.28263948,1.2190933,235.01363,145.98421)" />
        <path
           transform="matrix(0.85005235,-0.01897536,0.0320585,0.79149006,-52.024465,111.46472)"
           d="m -514.30865,251.19894 c 0,23.92101 -9.75131,43.31281 -21.78016,43.31281 -12.02884,0 -21.78015,-19.3918 -21.78015,-43.31281 0,-23.921 9.75131,-43.3128 21.78015,-43.3128 12.02885,0 21.78016,19.3918 21.78016,43.3128 z"
           sodipodi:ry="43.312809"
           sodipodi:rx="21.780155"
           sodipodi:cy="251.19894"
           sodipodi:cx="-536.08881"
           id="path7737"
           style="fill:#0000ff;stroke:#000000"
           sodipodi:type="arc" />
        <path
           sodipodi:type="arc"
           style="fill:#000000;stroke:#000000"
           id="path7739"
           sodipodi:cx="-536.08881"
           sodipodi:cy="251.19894"
           sodipodi:rx="21.780155"
           sodipodi:ry="43.312809"
           d="m -514.30865,251.19894 c 0,23.92101 -9.75131,43.31281 -21.78016,43.31281 -12.02884,0 -21.78015,-19.3918 -21.78015,-43.31281 0,-23.921 9.75131,-43.3128 21.78015,-43.3128 12.02885,0 21.78016,19.3918 21.78016,43.3128 z"
           transform="matrix(0.60615393,-0.01353092,0.02286022,0.56439443,-185.41512,174.89463)" />
        <path
           transform="matrix(0.20704742,-0.00462183,0.00780849,0.19278339,-382.72058,256.18887)"
           d="m -514.30865,251.19894 c 0,23.92101 -9.75131,43.31281 -21.78016,43.31281 -12.02884,0 -21.78015,-19.3918 -21.78015,-43.31281 0,-23.921 9.75131,-43.3128 21.78015,-43.3128 12.02885,0 21.78016,19.3918 21.78016,43.3128 z"
           sodipodi:ry="43.312809"
           sodipodi:rx="21.780155"
           sodipodi:cy="251.19894"
           sodipodi:cx="-536.08881"
           id="path7741"
           style="fill:#ffffff;stroke:#000000"
           sodipodi:type="arc" />
        <path
           sodipodi:type="arc"
           style="fill:#ffffff;stroke:#000000"
           id="path7743"
           sodipodi:cx="-536.08881"
           sodipodi:cy="251.19894"
           sodipodi:rx="21.780155"
           sodipodi:ry="43.312809"
           d="m -514.30865,251.19894 c 0,23.92101 -9.75131,43.31281 -21.78016,43.31281 -12.02884,0 -21.78015,-19.3918 -21.78015,-43.31281 0,-23.921 9.75131,-43.3128 21.78015,-43.3128 12.02885,0 21.78016,19.3918 21.78016,43.3128 z"
           transform="matrix(0.11002252,-0.00245599,0.00414934,0.10244279,-438.76541,294.39852)" />
        <path
           style="fill:#000000;stroke:none"
           d="m -478.09691,242.0962 c -12.10024,-0.34546 -25.41081,14.57707 -32.90625,36.25 8.39848,-19.69693 21.64642,-32.15173 33.21875,-29.46875 14.66429,3.39983 21.07352,29.80681 14.3125,58.96875 -0.84513,3.64524 -1.84938,7.1447 -3,10.5 2.19851,-5.19687 4.06531,-10.88412 5.46875,-16.9375 6.76102,-29.16194 0.35179,-55.56892 -14.3125,-58.96875 -0.91652,-0.21249 -1.84685,-0.31707 -2.78125,-0.34375 z"
           id="path7745"
           inkscape:connector-curvature="0" />
      </g>
      <g
         transform="matrix(-1,0,0,1,-1062.3543,0)"
         id="g7758">
        <path
           transform="matrix(1.2190933,0.28263948,-0.28263948,1.2190933,235.01363,145.98421)"
           d="m -514.30865,251.19894 c 0,23.92101 -9.75131,43.31281 -21.78016,43.31281 -12.02884,0 -21.78015,-19.3918 -21.78015,-43.31281 0,-23.921 9.75131,-43.3128 21.78015,-43.3128 12.02885,0 21.78016,19.3918 21.78016,43.3128 z"
           sodipodi:ry="43.312809"
           sodipodi:rx="21.780155"
           sodipodi:cy="251.19894"
           sodipodi:cx="-536.08881"
           id="path7760"
           style="fill:none;stroke:#000000"
           sodipodi:type="arc" />
        <path
           sodipodi:type="arc"
           style="fill:#0000ff;stroke:#000000"
           id="path7762"
           sodipodi:cx="-536.08881"
           sodipodi:cy="251.19894"
           sodipodi:rx="21.780155"
           sodipodi:ry="43.312809"
           d="m -514.30865,251.19894 c 0,23.92101 -9.75131,43.31281 -21.78016,43.31281 -12.02884,0 -21.78015,-19.3918 -21.78015,-43.31281 0,-23.921 9.75131,-43.3128 21.78015,-43.3128 12.02885,0 21.78016,19.3918 21.78016,43.3128 z"
           transform="matrix(0.85005235,-0.01897536,0.0320585,0.79149006,-52.024465,111.46472)" />
        <path
           transform="matrix(0.60615393,-0.01353092,0.02286022,0.56439443,-185.41512,174.89463)"
           d="m -514.30865,251.19894 c 0,23.92101 -9.75131,43.31281 -21.78016,43.31281 -12.02884,0 -21.78015,-19.3918 -21.78015,-43.31281 0,-23.921 9.75131,-43.3128 21.78015,-43.3128 12.02885,0 21.78016,19.3918 21.78016,43.3128 z"
           sodipodi:ry="43.312809"
           sodipodi:rx="21.780155"
           sodipodi:cy="251.19894"
           sodipodi:cx="-536.08881"
           id="path7764"
           style="fill:#000000;stroke:#000000"
           sodipodi:type="arc" />
        <path
           sodipodi:type="arc"
           style="fill:#ffffff;stroke:#000000"
           id="path7766"
           sodipodi:cx="-536.08881"
           sodipodi:cy="251.19894"
           sodipodi:rx="21.780155"
           sodipodi:ry="43.312809"
           d="m -514.30865,251.19894 c 0,23.92101 -9.75131,43.31281 -21.78016,43.31281 -12.02884,0 -21.78015,-19.3918 -21.78015,-43.31281 0,-23.921 9.75131,-43.3128 21.78015,-43.3128 12.02885,0 21.78016,19.3918 21.78016,43.3128 z"
           transform="matrix(0.20704742,-0.00462183,0.00780849,0.19278339,-382.72058,256.18887)" />
        <path
           transform="matrix(0.11002252,-0.00245599,0.00414934,0.10244279,-438.76541,294.39852)"
           d="m -514.30865,251.19894 c 0,23.92101 -9.75131,43.31281 -21.78016,43.31281 -12.02884,0 -21.78015,-19.3918 -21.78015,-43.31281 0,-23.921 9.75131,-43.3128 21.78015,-43.3128 12.02885,0 21.78016,19.3918 21.78016,43.3128 z"
           sodipodi:ry="43.312809"
           sodipodi:rx="21.780155"
           sodipodi:cy="251.19894"
           sodipodi:cx="-536.08881"
           id="path7768"
           style="fill:#ffffff;stroke:#000000"
           sodipodi:type="arc" />
        <path
           inkscape:connector-curvature="0"
           id="path7770"
           d="m -478.09691,242.0962 c -12.10024,-0.34546 -25.41081,14.57707 -32.90625,36.25 8.39848,-19.69693 21.64642,-32.15173 33.21875,-29.46875 14.66429,3.39983 21.07352,29.80681 14.3125,58.96875 -0.84513,3.64524 -1.84938,7.1447 -3,10.5 2.19851,-5.19687 4.06531,-10.88412 5.46875,-16.9375 6.76102,-29.16194 0.35179,-55.56892 -14.3125,-58.96875 -0.91652,-0.21249 -1.84685,-0.31707 -2.78125,-0.34375 z"
           style="fill:#000000;stroke:none" />
      </g>
    </g>
  </g>
</svg>
